<?xml version="1.0" encoding="utf-8"?>
<!-- Generator: Adobe Illustrator 27.3.0, SVG Export Plug-In . SVG Version: 6.00 Build 0)  -->
<svg version="1.1" id="Calque_1" xmlns="http://www.w3.org/2000/svg" xmlns:xlink="http://www.w3.org/1999/xlink" x="0px" y="0px"
	 viewBox="0 0 282.3 162.3" style="enable-background:new 0 0 282.3 162.3;" xml:space="preserve">
<style type="text/css">
	.st0{clip-path:url(#SVGID_00000062905836577006103740000018319246790036926653_);fill:#1D1D1B;}
	.st1{clip-path:url(#SVGID_00000062905836577006103740000018319246790036926653_);fill:none;stroke:#1D1D1B;stroke-width:0.8;}
</style>
<g>
	<defs>
		<rect id="SVGID_1_" x="7.5" y="10.9" width="264.7" height="139.5"/>
	</defs>
	<clipPath id="SVGID_00000166652987032709421020000010614889211130838671_">
		<use xlink:href="#SVGID_1_"  style="overflow:visible;"/>
	</clipPath>
	<path style="clip-path:url(#SVGID_00000166652987032709421020000010614889211130838671_);fill:#1D1D1B;" d="M188.9,103.6v17.5
		c0,6.5-4.7,8.3-4.7,10.7c0,1.2,0.8,1.9,1.9,1.9c1.6,0,4-0.3,5.6-0.3h2c4.5,0,9.4-5.8,9.4-8.3c0-1.1-0.7-1.8-1.7-2.1
		c-0.6-0.2-1.6-0.3-3.1-0.4v-16.4c0-4.4,4.5-8.1,7.1-8.1c3.1,0,4.1,2.7,4.1,6.7v23.4c0,2.6,1,5.8,5.7,5.8c5,0,11.7-7.1,11.7-9.6
		c0-1-0.8-1.9-2-1.9c-0.7,0-1,0.2-1.3,0.5c-0.2,0.2-0.5,0.3-1,0.3c-2,0-3.6-2.3-3.6-5.2V93.5c0-2.6-1.4-5.8-6.1-5.8
		c-5.9,0-11,4-14.6,7.2v-1.4c0-2.6-1-5.8-5.7-5.8c-5,0-11.7,7.1-11.7,9.6c0,1,0.8,1.9,2,1.9c0.7,0,1-0.2,1.3-0.5
		c0.2-0.2,0.5-0.3,1-0.3C187.2,98.4,188.9,100.7,188.9,103.6 M159,107c0-6.1,1.1-10.2,3.8-10.2c3.9,0,9.3,8.5,9.3,19.1
		c0,5.4-0.8,9-3.1,9C165.4,124.9,159,117.3,159,107 M165.1,134c2.2,0,5.1-1,8.2-4c5.9-5.7,8.1-10.1,8.1-19.5
		c0-13.8-6.5-22.8-14.8-22.8c-2.2,0-5.8,1.3-8.8,4.3c-5.5,5.4-8.2,10.1-8.2,19.5C149.6,124.1,157.8,134,165.1,134 M133.2,79.7
		c0,1.1,0.7,1.8,1.7,2.1c0.6,0.2,1.2,0.3,2.9,0.3c4.8,0,10.6-6.1,10.6-9.1c0-1.2-0.8-1.9-1.9-1.9c-1.6,0-2.1,0.3-3.2,0.3h-0.7
		C138.1,71.4,133.2,77.2,133.2,79.7 M144.4,133.8v-33.2c0-6.5,4.7-8.3,4.7-10.7c0-1.2-0.8-1.9-1.9-1.9c-1.6,0-4,0.3-5.6,0.3h-2
		c-4.5,0-9.4,5.8-9.4,8.3c0,1.1,0.7,1.8,1.7,2.1c0.6,0.2,1.6,0.4,2.9,0.5v39.1c0,6.8-5.3,7.4-5.3,10.3c0,1,0.7,1.8,1.9,1.8
		C135.7,150.4,144.4,141.7,144.4,133.8 M94.4,103.6v17.5c0,6.5-4.7,8.3-4.7,10.7c0,1.2,0.8,1.9,1.9,1.9c1.6,0,4-0.3,5.6-0.3h2
		c4.5,0,9.4-5.8,9.4-8.3c0-1.1-0.7-1.8-1.7-2.1c-0.6-0.2-1.6-0.3-3.1-0.4v-16.4c0-4.4,4.5-8.1,7.1-8.1c3.1,0,4.1,2.7,4.1,6.7v23.4
		c0,2.6,1,5.8,5.7,5.8c5,0,11.7-7.1,11.7-9.6c0-1-0.8-1.9-2-1.9c-0.7,0-1,0.2-1.3,0.5c-0.2,0.2-0.5,0.3-1,0.3c-2,0-3.6-2.3-3.6-5.2
		V93.5c0-2.6-1.4-5.8-6.1-5.8c-5.9,0-11,4-14.6,7.2v-1.4c0-2.6-1-5.8-5.7-5.8c-5,0-11.7,7.1-11.7,9.6c0,1,0.8,1.9,2,1.9
		c0.7,0,1-0.2,1.3-0.5c0.2-0.2,0.5-0.3,1-0.3C92.7,98.4,94.4,100.7,94.4,103.6 M64.5,107c0-6.1,1.1-10.2,3.8-10.2
		c3.9,0,9.3,8.5,9.3,19.1c0,5.4-0.8,9-3.1,9C70.9,124.9,64.5,117.3,64.5,107 M70.6,134c2.2,0,5.1-1,8.2-4c5.9-5.7,8.1-10.1,8.1-19.5
		c0-13.8-6.5-22.8-14.8-22.8c-2.2,0-5.8,1.3-8.8,4.3c-5.5,5.4-8.2,10.1-8.2,19.5C55.1,124.1,63.3,134,70.6,134 M26.3,122.4V82.6
		c0-5.3,4.9-10.3,7.4-10.3c4.6,0,9.5,4.6,9.5,18.4c0,10.7-2.6,20-6.9,26.3c-2.9,4.2-4.5,5.4-7.9,5.4H26.3z M17,133.4
		c3.1,0,4.9,0.3,7,0.3c4.1,0,7.9-2,17.7-11.5c7.3-7.2,13.1-20.3,13.1-36c0-14.9-4.4-24.3-14.1-24.3c-3.4,0-9.7,2.8-14.4,6.9v-1.1
		c0-2.6-1.1-5.8-5.4-5.8c-5,0-13.4,8.4-13.4,10.9c0,1,0.7,1.9,1.9,1.9c0.7,0,1-0.2,1.3-0.5c0.2-0.2,0.5-0.3,1-0.3
		c2,0,3.6,2.3,3.6,5.2v39.5c0,6.2-1.2,8.6-4,11.1c-1.2,1.1-1.6,1.7-1.6,2.7c0,0.8,0.7,1.6,1.8,1.6C13.3,134,14.1,133.4,17,133.4"/>
	<path style="clip-path:url(#SVGID_00000166652987032709421020000010614889211130838671_);fill:#1D1D1B;" d="M215.7,56
		c0-6.1,1.1-10.2,3.8-10.2c3.9,0,9.3,8.5,9.3,19.1c0,5.4-0.8,9-3.1,9C222.1,73.9,215.7,66.3,215.7,56 M221.8,83c2.2,0,5.1-1,8.2-4
		c5.9-5.7,8.1-10.1,8.1-19.5c0-13.8-6.5-22.8-14.8-22.8c-2.2,0-5.8,1.3-8.8,4.3c-5.5,5.4-8.2,10.1-8.2,19.5
		C206.3,73.1,214.5,83,221.8,83 M185.8,52.6v17.5c0,6.5-4.7,8.3-4.7,10.7c0,1.2,0.8,1.9,1.9,1.9c1.6,0,4-0.3,5.6-0.3h2
		c4.5,0,9.4-5.8,9.4-8.3c0-1.1-0.7-1.8-1.7-2.1c-0.6-0.2-1.6-0.4-3-0.5V53.6c0-2.4,0.3-3.8,1-4.7c1.4-1.8,2-2.3,3-2.3
		c2,0,1.4,1.7,3.6,1.7c1.8,0,7.1-4.4,7.1-8.5c0-1.9-0.8-3.1-4.4-3.1c-3.5,0-7.6,2.7-10.4,5.9v-0.1c0-2.6-1-5.8-5.7-5.8
		c-5,0-11.7,7.1-11.7,9.6c0,1,0.8,1.9,2,1.9c0.7,0,1-0.2,1.3-0.5c0.2-0.2,0.5-0.3,1-0.3C184.1,47.4,185.8,49.7,185.8,52.6
		 M165.5,36.7c-2.8,0-6.8,1.8-10,5c-5.1,5.1-8,9.2-8,18.1c0,13.8,6.7,23.2,15,23.2c6.2,0,14.3-7.8,14.3-10.2c0-1.1-0.7-1.7-1.8-1.7
		c-2.1,0-2.2,3-7.1,3c-5.9,0-11-9-11-18.4c0-5.6,0.9-9.9,3.5-9.9c2.8,0,6.7,2.6,6.7,4.6c0,1.1,0.5,2.2,2,2.2c3.1,0,8.6-6.6,8.6-9.3
		C177.7,38.8,170.8,36.7,165.5,36.7 M129.3,28.7c0,1.1,0.7,1.8,1.7,2.1c0.6,0.2,1.2,0.3,2.9,0.3c4.8,0,10.6-6.1,10.6-9.1
		c0-1.2-0.8-1.9-1.9-1.9c-1.6,0-2.1,0.3-3.2,0.3h-0.7C134.2,20.4,129.3,26.2,129.3,28.7 M130.9,48.1h0.1v29.1c0,2.6,1,5.8,5.7,5.8
		c5,0,11.7-7.1,11.7-9.6c0-1-0.8-1.9-2-1.9c-0.7,0-1,0.2-1.3,0.5c-0.2,0.2-0.5,0.3-1,0.3c-2,0-3.6-2.3-3.6-5.2V49.6
		c0-6.5,4.7-8.3,4.7-10.7c0-1.2-0.8-1.9-1.9-1.9c-1.6,0-4,0.3-5.6,0.3h-2c-4.5,0-9.4,5.8-9.4,8.3c0,1.1,0.7,1.8,1.7,2.1
		C128.6,47.9,129.6,48.1,130.9,48.1 M65.8,21.8c0,1,0.7,1.9,1.9,1.9c0.7,0,1-0.2,1.3-0.5c0.2-0.2,0.4-0.3,0.9-0.3
		c2,0,3.6,2.5,3.6,5.4v39.3c0,6.2-1.2,8.6-4,11.1c-1.2,1.1-1.6,1.7-1.6,2.7c0,0.8,0.7,1.6,1.8,1.6c1.8,0,2.9-0.5,4.7-0.5
		c1.6,0,2.5,0.2,4.1,0.2c4.1,0,9.3-5.8,9.3-8.3c0-0.9-0.3-1.7-1.5-2.1c-0.7-0.2-2.3-0.5-4.8-0.7V35.2l12,30.6c0.4,0.9,1,1.5,1.9,1.5
		s1.6-0.6,1.9-1.5l12.3-31.4v33.2c0,6.2-1.2,8.6-4,11.1c-1.2,1.1-1.6,1.7-1.6,2.7c0,0.8,0.7,1.6,1.8,1.6c1.8,0,3.1-0.6,6-0.6
		c3.2,0,4,0.3,5.8,0.3c4.1,0,9.3-5.8,9.3-8.3c0-0.9-0.3-1.7-1.5-2.1c-0.7-0.2-2.3-0.5-4.8-0.7v-45c0-6.2,1.2-8.6,4-11.1
		c1.2-1.1,1.6-1.7,1.6-2.7c0-0.8-0.7-1.6-1.8-1.6c-1.8,0-2.9,0.6-5.7,0.6c-3.5,0-4.4-0.3-5.6-0.3c-1.4,0-2.3,0.8-3,2.5l-13,33.6
		L85,15.4c-1.2-3.3-2.7-4.5-6-4.5C74,10.9,65.8,19.3,65.8,21.8"/>
	<path style="clip-path:url(#SVGID_00000166652987032709421020000010614889211130838671_);fill:#1D1D1B;" d="M272.2,102.5v-0.9H270
		v-7.5h-1.6l-2.2,2.1l0.6,0.6l2.1-2h0.1v6.8h-2.4v0.9H272.2z M262.5,98.8c0.1-0.1,0.2-0.2,0.2-0.4v-0.3c0-0.2-0.1-0.3-0.2-0.4
		s-0.3-0.2-0.6-0.2c-0.3,0-0.5,0.1-0.6,0.2s-0.2,0.2-0.2,0.4v0.3c0,0.2,0.1,0.3,0.2,0.4s0.3,0.2,0.6,0.2
		C262.2,99,262.4,98.9,262.5,98.8 M261.1,101.6c-0.2-0.1-0.4-0.3-0.6-0.6c-0.1-0.2-0.3-0.5-0.3-0.9c-0.1-0.3-0.1-0.7-0.1-1.1v-1.4
		c0-0.4,0-0.8,0.1-1.1c0.1-0.3,0.2-0.6,0.3-0.9c0.1-0.2,0.3-0.4,0.6-0.6c0.2-0.1,0.5-0.2,0.9-0.2s0.6,0.1,0.9,0.2
		c0.2,0.1,0.4,0.3,0.6,0.6c0.1,0.2,0.3,0.5,0.3,0.9c0.1,0.3,0.1,0.7,0.1,1.1V99c0,0.4,0,0.8-0.1,1.1c-0.1,0.3-0.2,0.6-0.3,0.9
		c-0.1,0.2-0.3,0.4-0.6,0.6c-0.2,0.1-0.5,0.2-0.9,0.2S261.3,101.7,261.1,101.6 M263.3,102.3c0.4-0.2,0.7-0.5,0.9-0.8
		c0.2-0.4,0.4-0.8,0.5-1.4c0.1-0.5,0.2-1.1,0.2-1.8c0-0.7-0.1-1.3-0.2-1.8c-0.1-0.5-0.3-1-0.5-1.4c-0.2-0.4-0.5-0.7-0.9-0.8
		c-0.4-0.2-0.8-0.3-1.3-0.3c-0.5,0-1,0.1-1.3,0.3c-0.4,0.2-0.7,0.5-0.9,0.8c-0.2,0.4-0.4,0.8-0.5,1.4c-0.1,0.5-0.2,1.2-0.2,1.8
		c0,0.7,0.1,1.3,0.2,1.8c0.1,0.5,0.3,1,0.5,1.4c0.2,0.4,0.5,0.7,0.9,0.8c0.4,0.2,0.8,0.3,1.3,0.3
		C262.5,102.6,262.9,102.5,263.3,102.3 M255.3,98.8c0.1-0.1,0.2-0.2,0.2-0.4v-0.3c0-0.2-0.1-0.3-0.2-0.4c-0.1-0.1-0.3-0.2-0.6-0.2
		c-0.3,0-0.5,0.1-0.6,0.2c-0.1,0.1-0.2,0.2-0.2,0.4v0.3c0,0.2,0.1,0.3,0.2,0.4c0.1,0.1,0.3,0.2,0.6,0.2
		C255,99,255.2,98.9,255.3,98.8 M253.9,101.6c-0.2-0.1-0.4-0.3-0.6-0.6c-0.1-0.2-0.3-0.5-0.3-0.9c-0.1-0.3-0.1-0.7-0.1-1.1v-1.4
		c0-0.4,0-0.8,0.1-1.1c0.1-0.3,0.2-0.6,0.3-0.9c0.1-0.2,0.3-0.4,0.6-0.6c0.2-0.1,0.5-0.2,0.9-0.2c0.3,0,0.6,0.1,0.9,0.2
		c0.2,0.1,0.4,0.3,0.6,0.6c0.1,0.2,0.3,0.5,0.3,0.9c0.1,0.3,0.1,0.7,0.1,1.1V99c0,0.4,0,0.8-0.1,1.1c-0.1,0.3-0.2,0.6-0.3,0.9
		c-0.1,0.2-0.3,0.4-0.6,0.6c-0.2,0.1-0.5,0.2-0.9,0.2C254.4,101.8,254.1,101.7,253.9,101.6 M256.1,102.3c0.4-0.2,0.7-0.5,0.9-0.8
		c0.2-0.4,0.4-0.8,0.5-1.4c0.1-0.5,0.2-1.1,0.2-1.8c0-0.7-0.1-1.3-0.2-1.8s-0.3-1-0.5-1.4c-0.2-0.4-0.5-0.7-0.9-0.8
		c-0.4-0.2-0.8-0.3-1.3-0.3c-0.5,0-1,0.1-1.3,0.3s-0.7,0.5-0.9,0.8c-0.2,0.4-0.4,0.8-0.5,1.4s-0.2,1.2-0.2,1.8
		c0,0.7,0.1,1.3,0.2,1.8c0.1,0.5,0.3,1,0.5,1.4c0.2,0.4,0.5,0.7,0.9,0.8s0.8,0.3,1.3,0.3C255.3,102.6,255.7,102.5,256.1,102.3
		 M248.3,102.4c0.1-0.1,0.2-0.3,0.2-0.5v-0.2c0-0.2-0.1-0.4-0.2-0.5s-0.4-0.2-0.7-0.2s-0.6,0.1-0.7,0.2c-0.1,0.1-0.2,0.3-0.2,0.5
		v0.2c0,0.2,0.1,0.4,0.2,0.5c0.1,0.1,0.4,0.2,0.7,0.2S248.1,102.5,248.3,102.4 M241.9,102.5v-0.9h-2.2v-7.5h-1.6l-2.2,2.1l0.6,0.6
		l2.1-2h0.1v6.8h-2.4v0.9H241.9z M232.3,102.5l2.5-8.4h-1l-1.2,4.2l-0.9,3.2h-0.1l-0.9-3.2l-1.2-4.2h-1.1l2.5,8.4H232.3z"/>
	
		<circle style="clip-path:url(#SVGID_00000166652987032709421020000010614889211130838671_);fill:none;stroke:#1D1D1B;stroke-width:0.8;" cx="235.2" cy="98.2" r="10"/>
</g>
</svg>
